<svg xmlns="http://www.w3.org/2000/svg" width="800" height="800" viewBox="0 0 800 800" version="1.1"><path d="M 537.500 226.104 C 503.265 230.426, 490.901 234.545, 463.500 250.760 C 443.269 262.732, 436.735 268.338, 421.719 286.609 C 413.255 296.907, 401.042 315.967, 398.007 323.613 C 396.722 326.851, 394.794 331.269, 393.722 333.432 L 391.774 337.364 384.628 322.932 C 374.749 302.982, 365.459 289.727, 350.090 273.655 C 335.265 258.152, 307.196 241.294, 283.500 233.661 C 263.459 227.206, 258.264 226.499, 231 226.511 C 209.477 226.520, 205.204 226.794, 195.836 228.764 C 182.032 231.668, 166.558 237.051, 156.500 242.450 C 133.006 255.059, 123.929 261.216, 113.305 271.753 C 107.982 277.032, 107 278.544, 107 281.469 C 107 287.721, 111.131 290.508, 135.558 300.738 C 147.626 305.793, 159.300 310.567, 161.500 311.347 C 163.700 312.127, 171.800 315.463, 179.500 318.761 C 187.200 322.058, 201.150 327.781, 210.500 331.478 C 219.850 335.176, 232.609 340.418, 238.854 343.128 C 245.099 345.838, 253.874 349.452, 258.354 351.158 C 262.834 352.864, 268.300 355.042, 270.500 355.997 C 272.700 356.953, 280.800 360.321, 288.500 363.482 C 296.200 366.643, 306.100 370.798, 310.500 372.715 C 314.900 374.632, 321.650 377.340, 325.500 378.733 C 331.535 380.916, 337.128 383.233, 345.500 387.018 C 352.429 390.151, 378.072 400, 379.300 400 C 382.649 400, 382.813 406.064, 379.881 421.392 C 376.463 439.256, 367.349 463.120, 358.830 476.508 C 350.600 489.444, 332.530 508.903, 320.502 517.782 C 309.634 525.804, 287.573 536.370, 273 540.532 C 255.969 545.395, 247.967 546.296, 226.675 545.749 C 196.115 544.963, 181.297 540.761, 152.500 524.712 C 143.213 519.537, 137.781 515.623, 129.985 508.491 C 123.628 502.675, 116.481 498.662, 113.714 499.357 C 109.471 500.422, 107 503.726, 107 508.334 C 107 512.044, 107.609 513.229, 111.750 517.578 C 118.509 524.677, 124.329 529.469, 133.500 535.487 C 158.487 551.884, 177.662 559.400, 205 563.513 C 225.006 566.524, 231.851 566.590, 252.908 563.981 C 284.966 560.009, 312.892 547.923, 339.657 526.437 C 356.394 513.001, 372.361 492.626, 384.031 469.814 C 389.812 458.513, 391.923 455.208, 392.728 456.196 C 393.313 456.913, 396.024 462.502, 398.754 468.615 C 409.713 493.165, 431.123 519.008, 453.237 534.381 C 469.378 545.603, 499.658 558.965, 515.754 561.969 C 530.062 564.640, 548.007 566.204, 558.009 565.653 C 599.089 563.390, 634.796 549.594, 663.794 524.783 C 668.355 520.880, 672.967 516.450, 674.044 514.939 C 677.102 510.643, 676.600 506.302, 672.608 502.537 C 669.290 499.408, 666.307 498.068, 628 482.503 C 619.475 479.039, 609.125 474.779, 605 473.036 C 600.875 471.293, 594.800 468.811, 591.500 467.521 C 586.125 465.418, 563.810 456.091, 552 451.010 C 549.525 449.945, 540.975 446.527, 533 443.415 C 525.025 440.303, 510.625 434.395, 501 430.286 C 491.375 426.177, 478.325 420.767, 472 418.264 C 457.455 412.509, 406.320 391.241, 403.852 389.921 C 402.348 389.116, 402 387.737, 402 382.575 C 402 375.222, 405.056 359.190, 408.115 350.500 C 415.852 328.516, 419.247 321.686, 429.007 308.465 C 441.687 291.289, 454.475 278.822, 469 269.478 C 490.015 255.957, 511.415 248.177, 534 245.845 C 547.233 244.479, 574.324 245.388, 583 247.490 C 612.737 254.694, 634.198 265.975, 660.004 287.966 C 665.311 292.488, 668.900 292.830, 672.803 289.184 C 681.954 280.636, 671.045 267.786, 638.711 249.030 C 615.081 235.321, 591.309 227.647, 569 226.524 C 562.675 226.206, 554.575 225.783, 551 225.583 C 547.425 225.384, 541.350 225.619, 537.500 226.104 M 217.500 245.232 C 197.348 246.786, 179.142 252.047, 161.376 261.450 C 147.985 268.537, 134.998 276.859, 135.008 278.346 C 135.016 279.567, 137.407 280.893, 145.419 284.122 C 148.125 285.212, 152.175 286.941, 154.419 287.963 C 156.664 288.985, 165.250 292.533, 173.500 295.848 C 201.134 306.951, 222.361 315.630, 240.500 323.240 C 250.400 327.394, 269.750 335.371, 283.500 340.966 C 297.250 346.562, 313.225 353.097, 319 355.489 C 324.775 357.880, 333.775 361.472, 339 363.470 C 347.164 366.592, 360.537 372.117, 376.731 379.057 C 379.098 380.072, 381.211 380.467, 381.528 379.954 C 382.257 378.776, 380.464 368.593, 377.839 359 C 365.811 315.036, 337.212 279.995, 297.013 259.964 C 273.299 248.148, 245.788 243.051, 217.500 245.232 M 403.015 416.250 C 403.035 423.267, 405.129 431.857, 410.634 447.500 C 416.398 463.880, 420.142 471.053, 429.246 483.159 C 444.452 503.380, 454.897 513.156, 472.500 523.643 C 487.165 532.380, 499.204 537.565, 513.664 541.374 C 531.524 546.078, 532.133 546.153, 552.408 546.128 C 583.264 546.092, 605.340 540.033, 631.689 524.369 C 643.516 517.338, 647.661 513.878, 646.501 512.002 C 645.573 510.501, 631.156 503.783, 620.500 499.887 C 616.100 498.278, 611.600 496.556, 610.500 496.061 C 602.042 492.250, 594.905 489.246, 585 485.329 C 578.675 482.828, 566.975 478.060, 559 474.734 C 551.025 471.408, 542.475 467.917, 540 466.977 C 537.525 466.037, 528.300 462.228, 519.500 458.511 C 510.700 454.795, 496.525 448.937, 488 445.493 C 479.475 442.048, 466.875 436.882, 460 434.011 C 453.125 431.141, 440.525 425.965, 432 422.509 C 423.475 419.054, 413.857 415.050, 410.626 413.613 C 407.395 412.176, 404.357 411, 403.876 411 C 403.394 411, 403.007 413.363, 403.015 416.250" stroke="none" fill="#bca883" fill-rule="evenodd"/><path d="M -0 400.001 L -0 800.002 400.250 799.751 L 800.500 799.500 800.751 399.750 L 801.002 0 400.501 0 L 0 0 -0 400.001 M 0.495 400.500 C 0.495 620.500, 0.610 710.351, 0.750 600.169 C 0.890 489.986, 0.890 309.986, 0.750 200.169 C 0.610 90.351, 0.495 180.500, 0.495 400.500 M 537.500 226.104 C 503.265 230.426, 490.901 234.545, 463.500 250.760 C 443.269 262.732, 436.735 268.338, 421.719 286.609 C 413.255 296.907, 401.042 315.967, 398.007 323.613 C 396.722 326.851, 394.794 331.269, 393.722 333.432 L 391.774 337.364 384.628 322.932 C 374.749 302.982, 365.459 289.727, 350.090 273.655 C 335.265 258.152, 307.196 241.294, 283.500 233.661 C 263.459 227.206, 258.264 226.499, 231 226.511 C 209.477 226.520, 205.204 226.794, 195.836 228.764 C 182.032 231.668, 166.558 237.051, 156.500 242.450 C 133.006 255.059, 123.929 261.216, 113.305 271.753 C 107.982 277.032, 107 278.544, 107 281.469 C 107 287.721, 111.131 290.508, 135.558 300.738 C 147.626 305.793, 159.300 310.567, 161.500 311.347 C 163.700 312.127, 171.800 315.463, 179.500 318.761 C 187.200 322.058, 201.150 327.781, 210.500 331.478 C 219.850 335.176, 232.609 340.418, 238.854 343.128 C 245.099 345.838, 253.874 349.452, 258.354 351.158 C 262.834 352.864, 268.300 355.042, 270.500 355.997 C 272.700 356.953, 280.800 360.321, 288.500 363.482 C 296.200 366.643, 306.100 370.798, 310.500 372.715 C 314.900 374.632, 321.650 377.340, 325.500 378.733 C 331.535 380.916, 337.128 383.233, 345.500 387.018 C 352.429 390.151, 378.072 400, 379.300 400 C 382.649 400, 382.813 406.064, 379.881 421.392 C 376.463 439.256, 367.349 463.120, 358.830 476.508 C 350.600 489.444, 332.530 508.903, 320.502 517.782 C 309.634 525.804, 287.573 536.370, 273 540.532 C 255.969 545.395, 247.967 546.296, 226.675 545.749 C 196.115 544.963, 181.297 540.761, 152.500 524.712 C 143.213 519.537, 137.781 515.623, 129.985 508.491 C 123.628 502.675, 116.481 498.662, 113.714 499.357 C 109.471 500.422, 107 503.726, 107 508.334 C 107 512.044, 107.609 513.229, 111.750 517.578 C 118.509 524.677, 124.329 529.469, 133.500 535.487 C 158.487 551.884, 177.662 559.400, 205 563.513 C 225.006 566.524, 231.851 566.590, 252.908 563.981 C 284.966 560.009, 312.892 547.923, 339.657 526.437 C 356.394 513.001, 372.361 492.626, 384.031 469.814 C 389.812 458.513, 391.923 455.208, 392.728 456.196 C 393.313 456.913, 396.024 462.502, 398.754 468.615 C 409.713 493.165, 431.123 519.008, 453.237 534.381 C 469.378 545.603, 499.658 558.965, 515.754 561.969 C 530.062 564.640, 548.007 566.204, 558.009 565.653 C 599.089 563.390, 634.796 549.594, 663.794 524.783 C 668.355 520.880, 672.967 516.450, 674.044 514.939 C 677.102 510.643, 676.600 506.302, 672.608 502.537 C 669.290 499.408, 666.307 498.068, 628 482.503 C 619.475 479.039, 609.125 474.779, 605 473.036 C 600.875 471.293, 594.800 468.811, 591.500 467.521 C 586.125 465.418, 563.810 456.091, 552 451.010 C 549.525 449.945, 540.975 446.527, 533 443.415 C 525.025 440.303, 510.625 434.395, 501 430.286 C 491.375 426.177, 478.325 420.767, 472 418.264 C 457.455 412.509, 406.320 391.241, 403.852 389.921 C 402.348 389.116, 402 387.737, 402 382.575 C 402 375.222, 405.056 359.190, 408.115 350.500 C 415.852 328.516, 419.247 321.686, 429.007 308.465 C 441.687 291.289, 454.475 278.822, 469 269.478 C 490.015 255.957, 511.415 248.177, 534 245.845 C 547.233 244.479, 574.324 245.388, 583 247.490 C 612.737 254.694, 634.198 265.975, 660.004 287.966 C 665.311 292.488, 668.900 292.830, 672.803 289.184 C 681.954 280.636, 671.045 267.786, 638.711 249.030 C 615.081 235.321, 591.309 227.647, 569 226.524 C 562.675 226.206, 554.575 225.783, 551 225.583 C 547.425 225.384, 541.350 225.619, 537.500 226.104 M 217.500 245.232 C 197.348 246.786, 179.142 252.047, 161.376 261.450 C 147.985 268.537, 134.998 276.859, 135.008 278.346 C 135.016 279.567, 137.407 280.893, 145.419 284.122 C 148.125 285.212, 152.175 286.941, 154.419 287.963 C 156.664 288.985, 165.250 292.533, 173.500 295.848 C 201.134 306.951, 222.361 315.630, 240.500 323.240 C 250.400 327.394, 269.750 335.371, 283.500 340.966 C 297.250 346.562, 313.225 353.097, 319 355.489 C 324.775 357.880, 333.775 361.472, 339 363.470 C 347.164 366.592, 360.537 372.117, 376.731 379.057 C 379.098 380.072, 381.211 380.467, 381.528 379.954 C 382.257 378.776, 380.464 368.593, 377.839 359 C 365.811 315.036, 337.212 279.995, 297.013 259.964 C 273.299 248.148, 245.788 243.051, 217.500 245.232 M 403.015 416.250 C 403.035 423.267, 405.129 431.857, 410.634 447.500 C 416.398 463.880, 420.142 471.053, 429.246 483.159 C 444.452 503.380, 454.897 513.156, 472.500 523.643 C 487.165 532.380, 499.204 537.565, 513.664 541.374 C 531.524 546.078, 532.133 546.153, 552.408 546.128 C 583.264 546.092, 605.340 540.033, 631.689 524.369 C 643.516 517.338, 647.661 513.878, 646.501 512.002 C 645.573 510.501, 631.156 503.783, 620.500 499.887 C 616.100 498.278, 611.600 496.556, 610.500 496.061 C 602.042 492.250, 594.905 489.246, 585 485.329 C 578.675 482.828, 566.975 478.060, 559 474.734 C 551.025 471.408, 542.475 467.917, 540 466.977 C 537.525 466.037, 528.300 462.228, 519.500 458.511 C 510.700 454.795, 496.525 448.937, 488 445.493 C 479.475 442.048, 466.875 436.882, 460 434.011 C 453.125 431.141, 440.525 425.965, 432 422.509 C 423.475 419.054, 413.857 415.050, 410.626 413.613 C 407.395 412.176, 404.357 411, 403.876 411 C 403.394 411, 403.007 413.363, 403.015 416.250" stroke="none" fill="#1b1a19" fill-rule="evenodd"/></svg>